# xmcd
#
# Track frame offsets:
#	150
#	16868
#	28787
#	39336
#	59782
#	71529
#	85189
#	96125
#	106146
#	119032
#	133955
#	147907
#	159168
#	173108
#	191866
#	200399
#	219823
#
# Disc length: 3101 seconds
#
# Revision: 0
# Processed by: cddbd v1.5.2PL0 Copyright (c) Steve Scherf et al.
# Submitted via: audiograbber 1.83.01
#
DISCID=f00c1b11
DTITLE=Various Artist - Feeling nice 4
DYEAR=2017
DGENRE=Funk
TTITLE0=Combined Forces - Feeling Alright
TTITLE1=Big Bear Revue - Big Bear
TTITLE2=Donnie Sanders and Don Juans - Shing-A-Ling Baby
TTITLE3=Mr. Clean and the Cleaners - Karate
TTITLE4=Fredrick Knight - Steppin' Down
TTITLE5=Donald ray and Revue - Strut your Stuff
TTITLE6=Little Ceaser and the Euterpeans - It ain't what you do
TTITLE7=Harold Andrews and the Sha-Bangs - The Swimming Monkey
TTITLE8=Jim Pipkin &Boss Five - Walkin' the Duck
TTITLE9=Take 5+2 - Get Your Love
TTITLE10=South Side - I Feel a Groove Comin' On
TTITLE11=Moony Mon - What about Mars
TTITLE12=Al Sinclair - No that ain't Groovy
TTITLE13=TNT Powerhouse - Basement Jam
TTITLE14=The NT Band - Good Foot
TTITLE15=Living Funk - Silver Black Summer Day
TTITLE16=George E. Johnson - Wake Me Up
EXTD=A collection of super rare and super heavy funk 45's from the late '60's a
EXTD=nd early '70's.
EXTT0=
EXTT1=
EXTT2=
EXTT3=
EXTT4=
EXTT5=
EXTT6=
EXTT7=
EXTT8=
EXTT9=
EXTT10=
EXTT11=
EXTT12=
EXTT13=
EXTT14=
EXTT15=
EXTT16=
PLAYORDER=
